<svg width="40" height="41" viewBox="0 0 40 41" fill="none" xmlns="http://www.w3.org/2000/svg">
<path d="M1.03204 33.6763C0.898699 33.6763 0.823696 33.6746 0.810363 33.6746C0.350347 33.6614 -0.0113315 33.282 0.00033554 32.8267C0.0136693 32.3714 0.383682 32.0448 0.857031 32.025C1.13371 32.0217 29.4397 32.5199 35.8599 7.89936C35.9749 7.45726 36.4282 7.19497 36.8749 7.30715C37.3199 7.42097 37.5883 7.87132 37.4733 8.31176C31.0297 33.028 3.7788 33.6763 1.03204 33.6763Z" fill="#3355FF"/>
<path d="M39.1683 13.2107C38.88 13.2107 38.5999 13.0639 38.4449 12.7982L36.3615 9.22632L32.7531 11.2886C32.3548 11.5147 31.8447 11.381 31.6147 10.9867C31.3847 10.5924 31.5214 10.0875 31.9197 9.85986L36.2499 7.38509C36.6466 7.15576 37.1566 7.29105 37.3882 7.68701L39.8883 11.9733C40.1183 12.3676 39.9817 12.8725 39.5833 13.1002C39.4533 13.176 39.31 13.2107 39.1683 13.2107Z" fill="#3355FF"/>
<path d="M35.8348 40.2708C35.3748 40.2708 35.0015 39.9012 35.0015 39.4459V18.0006C35.0015 17.5453 35.3748 17.1758 35.8348 17.1758C36.2949 17.1758 36.6682 17.5453 36.6682 18.0006V39.4459C36.6682 39.9012 36.2949 40.2708 35.8348 40.2708Z" fill="#3355FF"/>
<path d="M25.8346 40.2739C25.3746 40.2739 25.0012 39.9044 25.0012 39.4491V29.5514C25.0012 29.0961 25.3746 28.7266 25.8346 28.7266C26.2946 28.7266 26.668 29.0961 26.668 29.5514V39.4491C26.668 39.9044 26.2946 40.2739 25.8346 40.2739Z" fill="#3355FF"/>
<path d="M15.8342 40.2751C15.3742 40.2751 15.0009 39.9056 15.0009 39.4502V34.5007C15.0009 34.0453 15.3742 33.6758 15.8342 33.6758C16.2943 33.6758 16.6676 34.0453 16.6676 34.5007V39.4502C16.6676 39.9056 16.2943 40.2751 15.8342 40.2751Z" fill="#3355FF"/>
<path d="M5.83386 40.2676C5.37384 40.2676 5.00049 39.8985 5.00049 39.4437V36.9723C5.00049 36.5175 5.37384 36.1484 5.83386 36.1484C6.29388 36.1484 6.66724 36.5175 6.66724 36.9723V39.4437C6.66724 39.8985 6.29388 40.2676 5.83386 40.2676Z" fill="#3355FF"/>
<path d="M12.0974 20.208C11.8841 20.208 11.6708 20.1272 11.5074 19.9672L5.51388 14.0334C5.20054 13.7233 5.18721 13.2235 5.48388 12.8985L10.394 7.50255C13.8825 3.5154 19.416 0.767113 24.1528 0.679683C24.3495 0.653289 24.5978 0.763814 24.7578 0.920529C24.9179 1.08054 25.0045 1.29664 25.0012 1.51934C24.9129 6.20759 22.1361 11.6844 18.0943 15.1469L12.6541 19.9969C12.4974 20.1387 12.2974 20.208 12.0974 20.208ZM7.25227 13.4214L12.1291 18.2482L16.9926 13.9114C20.4527 10.947 22.8961 6.41875 23.2828 2.38045C19.2027 2.76317 14.6292 5.18152 11.6441 8.59461L7.25227 13.4214Z" fill="#3355FF"/>
<path d="M14.3408 24.1222C14.2658 24.1222 14.1891 24.1123 14.1141 24.0908C13.8241 24.0084 13.6008 23.7807 13.5291 23.4887L12.3508 18.6222C12.2441 18.1801 12.5208 17.7346 12.9674 17.6274C13.4191 17.5235 13.8658 17.7957 13.9725 18.2378L14.7542 21.4695C16.2025 19.2276 16.4909 16.3588 16.5209 14.6811C16.5292 14.2258 16.9259 13.8694 17.3692 13.8711C17.8293 13.8777 18.1959 14.2555 18.1876 14.7091C18.1176 18.6123 16.9609 21.8687 14.9292 23.8797C14.7708 24.0364 14.5575 24.1222 14.3408 24.1222Z" fill="#3355FF"/>
<path d="M7.06897 13.2242C7.00396 13.2242 6.93896 13.2176 6.87396 13.2011L1.95715 12.0347C1.6638 11.9654 1.43046 11.7459 1.34879 11.4572C1.26713 11.1701 1.34879 10.8616 1.56047 10.6504C3.5922 8.63916 6.88229 7.49413 10.8274 7.42483C11.2891 7.38359 11.6674 7.77956 11.6741 8.23494C11.6808 8.69031 11.3174 9.06649 10.8557 9.07474C9.15903 9.10444 6.26227 9.38987 3.99721 10.8236L7.2623 11.5974C7.70898 11.703 7.98566 12.1485 7.87899 12.5923C7.78565 12.9702 7.44564 13.2242 7.06897 13.2242Z" fill="#3355FF"/>
<path d="M0.833722 25.425C0.615381 25.425 0.403707 25.3393 0.243701 25.1842C0.0270267 24.9697 -0.0529761 24.6546 0.0353604 24.3643C0.31037 23.4536 1.74042 18.8575 2.86046 17.7489C4.20884 16.4126 6.40392 16.411 7.7573 17.7489C9.10735 19.0852 9.10735 21.2595 7.7573 22.5958C6.63893 23.7044 1.99376 25.1182 1.07373 25.3904C0.993728 25.4135 0.913725 25.425 0.833722 25.425ZM5.30888 18.3956C4.84886 18.3956 4.38885 18.5688 4.03884 18.9153C3.56549 19.3838 2.75212 21.4492 2.11543 23.3316C4.01717 22.7014 6.10558 21.8963 6.57726 21.4294C7.27728 20.7366 7.27728 19.6081 6.57726 18.9169C6.22725 18.5688 5.76723 18.3956 5.30888 18.3956Z" fill="#3355FF"/>
</svg>
