<svg width="42" height="41" viewBox="0 0 42 41" fill="none" xmlns="http://www.w3.org/2000/svg">
<path d="M34.2424 0.625781C31.1507 0.625781 28.7212 3.54813 28.7212 7.17043C28.7212 10.7935 31.189 13.6706 34.2424 13.6706C37.2958 13.6706 39.8013 10.749 39.8013 7.12595C39.8013 3.50269 37.3334 0.625781 34.2424 0.625781ZM34.2424 12.1471C31.9003 12.1471 29.9909 9.90886 29.9909 7.12595C29.9909 4.34396 31.9373 2.14927 34.2424 2.14927C36.5845 2.14927 38.4939 4.38753 38.4939 7.17043C38.4939 9.95273 36.5851 12.1471 34.2424 12.1471Z" fill="#3355FF" stroke="#3355FF" stroke-width="0.1"/>
<mask id="path-2-outside-1_212_111" maskUnits="userSpaceOnUse" x="31.4688" y="1.94531" width="5" height="10" fill="black">
<rect fill="white" x="31.4688" y="1.94531" width="5" height="10"/>
<path d="M35.9779 8.14994C35.9402 8.01649 35.9402 7.92752 35.8647 7.79406C35.827 7.7051 35.7892 7.57165 35.7138 7.48268C35.6383 7.39371 35.6006 7.30474 35.5251 7.21577C35.4496 7.12681 35.3742 7.03784 35.261 6.99335C35.1855 6.90439 35.0723 6.8599 34.9968 6.81542C34.8836 6.77093 34.8082 6.68197 34.695 6.63748C34.5818 6.593 34.4686 6.54851 34.3931 6.50403C34.3554 6.50403 34.2799 6.45955 34.2422 6.41506C34.2045 6.37058 34.129 6.37058 34.0913 6.32609C34.0535 6.28161 33.9781 6.28161 33.9403 6.23713C33.9026 6.19264 33.8649 6.14816 33.8271 6.10367C33.7894 6.05919 33.7517 6.01471 33.7517 5.92574C33.7139 5.88125 33.7139 5.79229 33.7139 5.7478C33.7139 5.65884 33.7139 5.61435 33.7139 5.52538C33.7139 5.4809 33.7517 5.39193 33.7517 5.34745C33.7894 5.30296 33.7894 5.21399 33.8271 5.16951C33.8649 5.12503 33.9026 5.08054 33.9403 5.03606C33.9781 4.99158 34.0535 4.94709 34.129 4.94709C34.2045 4.90261 34.2422 4.90261 34.3177 4.90261C34.3554 4.90261 34.3931 4.90261 34.4308 4.90261C34.4686 4.90261 34.5063 4.90261 34.544 4.90261C34.6195 4.90261 34.6572 4.90261 34.7327 4.94709C34.8082 4.94709 34.8836 4.99158 34.9214 4.99158C34.9591 4.99158 35.0346 5.03606 35.0723 5.03606C35.1478 5.03606 35.1855 5.08054 35.2232 5.08054L35.4119 5.16951L35.4496 4.90261L35.5251 4.19086V4.01293L35.3742 3.96844C35.3364 3.96844 35.261 3.92396 35.2232 3.92396C35.1855 3.92396 35.1478 3.87948 35.0723 3.87948C35.0346 3.87948 34.9591 3.83499 34.8836 3.83499C34.8082 3.83499 34.7704 3.79051 34.695 3.79051H34.6572V3.16773V2.94531H34.4686H33.9403H33.7517V3.16773V3.83499H33.7139C33.6007 3.87948 33.4875 3.92396 33.3743 4.01293C33.2611 4.05741 33.1857 4.14638 33.1102 4.23535C33.0347 4.32432 32.9593 4.41328 32.8838 4.54674C32.8083 4.6357 32.7706 4.76916 32.7329 4.90261C32.6951 5.03606 32.6574 5.16951 32.6197 5.30296C32.5819 5.43642 32.5819 5.61435 32.5819 5.7478C32.5819 5.88126 32.5819 5.97022 32.6197 6.10367C32.6574 6.23713 32.6574 6.32609 32.7329 6.45955C32.7706 6.54851 32.8461 6.68197 32.8838 6.77093C32.9593 6.8599 32.997 6.94887 33.0725 7.03784C33.1479 7.12681 33.2234 7.21577 33.3366 7.26026C33.4121 7.34923 33.5253 7.39371 33.6007 7.43819C33.7139 7.48268 33.8271 7.57165 33.9026 7.61613C34.0158 7.66061 34.129 7.7051 34.2045 7.74958C34.2422 7.74958 34.3177 7.79407 34.3554 7.83855C34.3931 7.88303 34.4686 7.88303 34.5063 7.92752C34.544 7.972 34.5818 8.01649 34.6195 8.01649C34.6572 8.06097 34.695 8.10545 34.7327 8.14994C34.7704 8.19442 34.7704 8.23891 34.8082 8.32787C34.8082 8.37236 34.8459 8.46133 34.8459 8.55029C34.8459 8.63926 34.8459 8.68374 34.8459 8.77271C34.8459 8.8172 34.8082 8.90616 34.7704 8.95065C34.7327 8.99513 34.695 9.03962 34.6572 9.0841C34.6195 9.12858 34.5818 9.17307 34.5063 9.21755C34.4686 9.26204 34.3931 9.26204 34.3554 9.30652C34.3177 9.30652 34.2422 9.351 34.1667 9.351C34.129 9.351 34.0913 9.351 34.0158 9.351C33.9781 9.351 33.9026 9.351 33.8649 9.351C33.7894 9.351 33.7139 9.351 33.6762 9.351C33.6007 9.351 33.5253 9.30652 33.4875 9.30652C33.4121 9.30652 33.3366 9.26204 33.2611 9.21755C33.1857 9.17307 33.1102 9.17307 33.0347 9.12858C32.997 9.12858 32.9593 9.0841 32.9215 9.0841C32.8838 9.0841 32.8461 9.03962 32.8083 9.03962L32.5819 8.90616L32.5442 9.21755L32.4688 10.0183V10.1517L32.5819 10.1962C32.7329 10.1517 32.8083 10.1962 32.9215 10.2407C32.997 10.2852 33.1102 10.3297 33.1857 10.3297C33.2611 10.3741 33.3743 10.3741 33.4875 10.4186C33.6007 10.4631 33.6762 10.4631 33.7894 10.4631H33.8649V11.1304V11.3528H34.0535H34.5818H34.7704V11.1304V10.4186H34.8082C34.9214 10.3741 35.0346 10.3297 35.1478 10.2407C35.261 10.1962 35.3364 10.1072 35.4496 10.0183C35.5251 9.9293 35.6006 9.84033 35.676 9.70688C35.7515 9.61791 35.7892 9.48446 35.8647 9.351C35.9024 9.21755 35.9402 9.0841 35.9779 8.95065C36.0156 8.8172 36.0156 8.68374 36.0156 8.50581C36.0156 8.37236 36.0156 8.28339 35.9779 8.14994Z"/>
</mask>
<path d="M35.9779 8.14994C35.9402 8.01649 35.9402 7.92752 35.8647 7.79406C35.827 7.7051 35.7892 7.57165 35.7138 7.48268C35.6383 7.39371 35.6006 7.30474 35.5251 7.21577C35.4496 7.12681 35.3742 7.03784 35.261 6.99335C35.1855 6.90439 35.0723 6.8599 34.9968 6.81542C34.8836 6.77093 34.8082 6.68197 34.695 6.63748C34.5818 6.593 34.4686 6.54851 34.3931 6.50403C34.3554 6.50403 34.2799 6.45955 34.2422 6.41506C34.2045 6.37058 34.129 6.37058 34.0913 6.32609C34.0535 6.28161 33.9781 6.28161 33.9403 6.23713C33.9026 6.19264 33.8649 6.14816 33.8271 6.10367C33.7894 6.05919 33.7517 6.01471 33.7517 5.92574C33.7139 5.88125 33.7139 5.79229 33.7139 5.7478C33.7139 5.65884 33.7139 5.61435 33.7139 5.52538C33.7139 5.4809 33.7517 5.39193 33.7517 5.34745C33.7894 5.30296 33.7894 5.21399 33.8271 5.16951C33.8649 5.12503 33.9026 5.08054 33.9403 5.03606C33.9781 4.99158 34.0535 4.94709 34.129 4.94709C34.2045 4.90261 34.2422 4.90261 34.3177 4.90261C34.3554 4.90261 34.3931 4.90261 34.4308 4.90261C34.4686 4.90261 34.5063 4.90261 34.544 4.90261C34.6195 4.90261 34.6572 4.90261 34.7327 4.94709C34.8082 4.94709 34.8836 4.99158 34.9214 4.99158C34.9591 4.99158 35.0346 5.03606 35.0723 5.03606C35.1478 5.03606 35.1855 5.08054 35.2232 5.08054L35.4119 5.16951L35.4496 4.90261L35.5251 4.19086V4.01293L35.3742 3.96844C35.3364 3.96844 35.261 3.92396 35.2232 3.92396C35.1855 3.92396 35.1478 3.87948 35.0723 3.87948C35.0346 3.87948 34.9591 3.83499 34.8836 3.83499C34.8082 3.83499 34.7704 3.79051 34.695 3.79051H34.6572V3.16773V2.94531H34.4686H33.9403H33.7517V3.16773V3.83499H33.7139C33.6007 3.87948 33.4875 3.92396 33.3743 4.01293C33.2611 4.05741 33.1857 4.14638 33.1102 4.23535C33.0347 4.32432 32.9593 4.41328 32.8838 4.54674C32.8083 4.6357 32.7706 4.76916 32.7329 4.90261C32.6951 5.03606 32.6574 5.16951 32.6197 5.30296C32.5819 5.43642 32.5819 5.61435 32.5819 5.7478C32.5819 5.88126 32.5819 5.97022 32.6197 6.10367C32.6574 6.23713 32.6574 6.32609 32.7329 6.45955C32.7706 6.54851 32.8461 6.68197 32.8838 6.77093C32.9593 6.8599 32.997 6.94887 33.0725 7.03784C33.1479 7.12681 33.2234 7.21577 33.3366 7.26026C33.4121 7.34923 33.5253 7.39371 33.6007 7.43819C33.7139 7.48268 33.8271 7.57165 33.9026 7.61613C34.0158 7.66061 34.129 7.7051 34.2045 7.74958C34.2422 7.74958 34.3177 7.79407 34.3554 7.83855C34.3931 7.88303 34.4686 7.88303 34.5063 7.92752C34.544 7.972 34.5818 8.01649 34.6195 8.01649C34.6572 8.06097 34.695 8.10545 34.7327 8.14994C34.7704 8.19442 34.7704 8.23891 34.8082 8.32787C34.8082 8.37236 34.8459 8.46133 34.8459 8.55029C34.8459 8.63926 34.8459 8.68374 34.8459 8.77271C34.8459 8.8172 34.8082 8.90616 34.7704 8.95065C34.7327 8.99513 34.695 9.03962 34.6572 9.0841C34.6195 9.12858 34.5818 9.17307 34.5063 9.21755C34.4686 9.26204 34.3931 9.26204 34.3554 9.30652C34.3177 9.30652 34.2422 9.351 34.1667 9.351C34.129 9.351 34.0913 9.351 34.0158 9.351C33.9781 9.351 33.9026 9.351 33.8649 9.351C33.7894 9.351 33.7139 9.351 33.6762 9.351C33.6007 9.351 33.5253 9.30652 33.4875 9.30652C33.4121 9.30652 33.3366 9.26204 33.2611 9.21755C33.1857 9.17307 33.1102 9.17307 33.0347 9.12858C32.997 9.12858 32.9593 9.0841 32.9215 9.0841C32.8838 9.0841 32.8461 9.03962 32.8083 9.03962L32.5819 8.90616L32.5442 9.21755L32.4688 10.0183V10.1517L32.5819 10.1962C32.7329 10.1517 32.8083 10.1962 32.9215 10.2407C32.997 10.2852 33.1102 10.3297 33.1857 10.3297C33.2611 10.3741 33.3743 10.3741 33.4875 10.4186C33.6007 10.4631 33.6762 10.4631 33.7894 10.4631H33.8649V11.1304V11.3528H34.0535H34.5818H34.7704V11.1304V10.4186H34.8082C34.9214 10.3741 35.0346 10.3297 35.1478 10.2407C35.261 10.1962 35.3364 10.1072 35.4496 10.0183C35.5251 9.9293 35.6006 9.84033 35.676 9.70688C35.7515 9.61791 35.7892 9.48446 35.8647 9.351C35.9024 9.21755 35.9402 9.0841 35.9779 8.95065C36.0156 8.8172 36.0156 8.68374 36.0156 8.50581C36.0156 8.37236 36.0156 8.28339 35.9779 8.14994Z" fill="#3355FF"/>
<path d="M35.9779 8.14994C35.9402 8.01649 35.9402 7.92752 35.8647 7.79406C35.827 7.7051 35.7892 7.57165 35.7138 7.48268C35.6383 7.39371 35.6006 7.30474 35.5251 7.21577C35.4496 7.12681 35.3742 7.03784 35.261 6.99335C35.1855 6.90439 35.0723 6.8599 34.9968 6.81542C34.8836 6.77093 34.8082 6.68197 34.695 6.63748C34.5818 6.593 34.4686 6.54851 34.3931 6.50403C34.3554 6.50403 34.2799 6.45955 34.2422 6.41506C34.2045 6.37058 34.129 6.37058 34.0913 6.32609C34.0535 6.28161 33.9781 6.28161 33.9403 6.23713C33.9026 6.19264 33.8649 6.14816 33.8271 6.10367C33.7894 6.05919 33.7517 6.01471 33.7517 5.92574C33.7139 5.88125 33.7139 5.79229 33.7139 5.7478C33.7139 5.65884 33.7139 5.61435 33.7139 5.52538C33.7139 5.4809 33.7517 5.39193 33.7517 5.34745C33.7894 5.30296 33.7894 5.21399 33.8271 5.16951C33.8649 5.12503 33.9026 5.08054 33.9403 5.03606C33.9781 4.99158 34.0535 4.94709 34.129 4.94709C34.2045 4.90261 34.2422 4.90261 34.3177 4.90261C34.3554 4.90261 34.3931 4.90261 34.4308 4.90261C34.4686 4.90261 34.5063 4.90261 34.544 4.90261C34.6195 4.90261 34.6572 4.90261 34.7327 4.94709C34.8082 4.94709 34.8836 4.99158 34.9214 4.99158C34.9591 4.99158 35.0346 5.03606 35.0723 5.03606C35.1478 5.03606 35.1855 5.08054 35.2232 5.08054L35.4119 5.16951L35.4496 4.90261L35.5251 4.19086V4.01293L35.3742 3.96844C35.3364 3.96844 35.261 3.92396 35.2232 3.92396C35.1855 3.92396 35.1478 3.87948 35.0723 3.87948C35.0346 3.87948 34.9591 3.83499 34.8836 3.83499C34.8082 3.83499 34.7704 3.79051 34.695 3.79051H34.6572V3.16773V2.94531H34.4686H33.9403H33.7517V3.16773V3.83499H33.7139C33.6007 3.87948 33.4875 3.92396 33.3743 4.01293C33.2611 4.05741 33.1857 4.14638 33.1102 4.23535C33.0347 4.32432 32.9593 4.41328 32.8838 4.54674C32.8083 4.6357 32.7706 4.76916 32.7329 4.90261C32.6951 5.03606 32.6574 5.16951 32.6197 5.30296C32.5819 5.43642 32.5819 5.61435 32.5819 5.7478C32.5819 5.88126 32.5819 5.97022 32.6197 6.10367C32.6574 6.23713 32.6574 6.32609 32.7329 6.45955C32.7706 6.54851 32.8461 6.68197 32.8838 6.77093C32.9593 6.8599 32.997 6.94887 33.0725 7.03784C33.1479 7.12681 33.2234 7.21577 33.3366 7.26026C33.4121 7.34923 33.5253 7.39371 33.6007 7.43819C33.7139 7.48268 33.8271 7.57165 33.9026 7.61613C34.0158 7.66061 34.129 7.7051 34.2045 7.74958C34.2422 7.74958 34.3177 7.79407 34.3554 7.83855C34.3931 7.88303 34.4686 7.88303 34.5063 7.92752C34.544 7.972 34.5818 8.01649 34.6195 8.01649C34.6572 8.06097 34.695 8.10545 34.7327 8.14994C34.7704 8.19442 34.7704 8.23891 34.8082 8.32787C34.8082 8.37236 34.8459 8.46133 34.8459 8.55029C34.8459 8.63926 34.8459 8.68374 34.8459 8.77271C34.8459 8.8172 34.8082 8.90616 34.7704 8.95065C34.7327 8.99513 34.695 9.03962 34.6572 9.0841C34.6195 9.12858 34.5818 9.17307 34.5063 9.21755C34.4686 9.26204 34.3931 9.26204 34.3554 9.30652C34.3177 9.30652 34.2422 9.351 34.1667 9.351C34.129 9.351 34.0913 9.351 34.0158 9.351C33.9781 9.351 33.9026 9.351 33.8649 9.351C33.7894 9.351 33.7139 9.351 33.6762 9.351C33.6007 9.351 33.5253 9.30652 33.4875 9.30652C33.4121 9.30652 33.3366 9.26204 33.2611 9.21755C33.1857 9.17307 33.1102 9.17307 33.0347 9.12858C32.997 9.12858 32.9593 9.0841 32.9215 9.0841C32.8838 9.0841 32.8461 9.03962 32.8083 9.03962L32.5819 8.90616L32.5442 9.21755L32.4688 10.0183V10.1517L32.5819 10.1962C32.7329 10.1517 32.8083 10.1962 32.9215 10.2407C32.997 10.2852 33.1102 10.3297 33.1857 10.3297C33.2611 10.3741 33.3743 10.3741 33.4875 10.4186C33.6007 10.4631 33.6762 10.4631 33.7894 10.4631H33.8649V11.1304V11.3528H34.0535H34.5818H34.7704V11.1304V10.4186H34.8082C34.9214 10.3741 35.0346 10.3297 35.1478 10.2407C35.261 10.1962 35.3364 10.1072 35.4496 10.0183C35.5251 9.9293 35.6006 9.84033 35.676 9.70688C35.7515 9.61791 35.7892 9.48446 35.8647 9.351C35.9024 9.21755 35.9402 9.0841 35.9779 8.95065C36.0156 8.8172 36.0156 8.68374 36.0156 8.50581C36.0156 8.37236 36.0156 8.28339 35.9779 8.14994Z" stroke="#3355FF" stroke-width="0.2" mask="url(#path-2-outside-1_212_111)"/>
<path d="M30.701 14.2883L30.701 14.2882L30.699 14.2901L24.6116 20.0046L16.7565 16.1499L16.7558 16.1495C16.5475 16.0513 16.3002 16.1009 16.1358 16.2459C16.1357 16.246 16.1355 16.2461 16.1354 16.2463L7.68422 23.3627C7.40134 23.6009 7.3218 24.0719 7.52177 24.4039C7.64422 24.643 7.85039 24.7409 8.05602 24.7409C8.18316 24.7409 8.30693 24.6908 8.4265 24.5968L8.42652 24.5968L8.42781 24.5957L16.5909 17.7219L24.4854 21.5776L24.486 21.5779C24.5911 21.6274 24.7147 21.6389 24.831 21.621C24.9473 21.6031 25.0604 21.5553 25.1442 21.4812L25.1442 21.4812L25.1452 21.4802L31.5211 15.5204C31.6653 15.3985 31.7443 15.2073 31.764 15.0098C31.7838 14.8116 31.7446 14.6003 31.6438 14.434C31.4379 14.0942 30.9866 14.0478 30.701 14.2883Z" fill="#3355FF" stroke="#3355FF" stroke-width="0.1"/>
<path d="M40.4304 38.8008H37.6882V18.2547C37.6882 17.8348 37.4091 17.493 37.0345 17.493H31.4878C31.1132 17.493 30.8341 17.8348 30.8341 18.2547V38.8008H28.8966V25.3722C28.8966 24.9522 28.6174 24.6104 28.2428 24.6104H22.6584C22.2838 24.6104 22.0047 24.9522 22.0047 25.3722V38.8008H20.0672V24.3045C20.0672 23.8846 19.788 23.5428 19.4134 23.5428H13.8668C13.4922 23.5428 13.213 23.8846 13.213 24.3045V38.8008H11.2755V28.486C11.2755 28.0661 10.9964 27.7243 10.6218 27.7243H5.03737C4.66277 27.7243 4.38365 28.0661 4.38365 28.486V38.8008H1.60372C1.22911 38.8008 0.95 39.1426 0.95 39.5625C0.95 39.9825 1.22911 40.3243 1.60372 40.3243H4.99964H10.5463H13.8668H19.4134H22.6584H28.2051H31.4501H36.9968H40.3927C40.7666 40.3243 41.0454 39.9837 41.0464 39.5649C41.0851 39.142 40.8043 38.8008 40.4304 38.8008ZM9.93032 38.8008H5.69109V29.2478H9.93032V38.8008ZM18.7597 38.8008H14.5205V25.0663H18.7597V38.8008ZM27.5514 38.8008H23.3121V26.1339H27.5514V38.8008ZM36.3808 38.8008H32.1415V19.0165H36.3808V38.8008Z" fill="#3355FF" stroke="#3355FF" stroke-width="0.1"/>
</svg>
