<svg width="40" height="41" viewBox="0 0 40 41" fill="none" xmlns="http://www.w3.org/2000/svg">
<path d="M39.9822 2.36177C39.9498 1.29164 39.0642 0.440925 37.9831 0.441406H1.99911C0.895033 0.441406 0 1.32777 0 2.42116V38.0567C0 39.1501 0.895033 40.0365 1.99911 40.0365H37.9831C39.0872 40.0365 39.9822 39.1501 39.9822 38.0567C39.9822 -5.87401 40.0222 3.741 39.9822 2.36177ZM38.6495 2.36177L35.5442 12.7753L31.3194 11.2047V1.76124L37.9831 1.76124C38.3313 1.76014 38.6216 2.02467 38.6495 2.36837V2.36177ZM29.9867 11.5412L25.0755 24.9112L20.6575 19.9882V1.76124H29.9867V11.5412ZM19.3247 18.3582C15.3265 13.4352 15.2332 13.2834 15.1466 13.191C15.021 13.0569 14.8448 12.9804 14.6601 12.9799C14.4869 12.9799 15.4131 12.9799 11.9947 12.9799C11.6266 12.9799 11.3283 13.2753 11.3283 13.6398C11.3283 14.0042 11.6266 14.2997 11.9947 14.2997H13.5473L9.99556 20.8989V1.76124H19.3247V18.3582ZM9.99556 23.7035L14.7734 14.8342L19.3247 20.4699V38.7167H9.99556V23.7035ZM20.6575 21.9745C25.1422 26.9701 24.8423 26.6732 25.0355 26.7655C25.2288 26.8579 25.1422 26.8381 27.9876 26.8381C28.3556 26.8381 28.6539 26.5427 28.6539 26.1782C28.6539 25.8138 28.3556 25.5183 27.9876 25.5183H26.275L29.9867 15.4084V38.7167H20.6575V21.9745ZM1.99911 1.76124H8.66282V12.9799H7.33007C6.96205 12.9799 6.6637 13.2753 6.6637 13.6398C6.6637 14.0042 6.96205 14.2997 7.33007 14.2997H8.66282V23.3538L4.87117 29.6164L1.33274 31.1144V2.42116C1.33274 2.0567 1.63109 1.76124 1.99911 1.76124ZM1.33274 38.0567V32.553L5.59085 30.7448C5.87072 30.6261 5.67748 30.8438 8.66282 25.9208V38.7167H1.99911C1.63109 38.7167 1.33274 38.4212 1.33274 38.0567ZM37.9831 38.7167H31.3194V26.8381H32.6522C33.0202 26.8381 33.3185 26.5427 33.3185 26.1782C33.3185 25.8138 33.0202 25.5183 32.6522 25.5183H31.3194V12.6103L35.7508 14.2601C35.9277 14.3332 36.1279 14.3273 36.3001 14.2439C36.4724 14.1606 36.6 14.0077 36.6504 13.8245L38.6495 7.00099V38.0567C38.6495 38.4212 38.3511 38.7167 37.9831 38.7167Z" fill="#3355FF"/>
<path d="M25.7952 28.3515C25.67 28.2265 25.4997 28.1562 25.322 28.1562C25.1444 28.1562 24.974 28.2265 24.8489 28.3515L22.8498 30.3312C22.6808 30.4986 22.6148 30.7426 22.6766 30.9713C22.7385 31.1999 22.9188 31.3785 23.1497 31.4398C23.3806 31.5011 23.627 31.4357 23.796 31.2683L24.6557 30.4104V34.7593C24.6557 35.1237 24.954 35.4192 25.322 35.4192C25.6901 35.4192 25.9884 35.1237 25.9884 34.7593V30.4104L26.848 31.2683C27.1093 31.5271 27.533 31.5271 27.7943 31.2683C28.0556 31.0095 28.0556 30.59 27.7943 30.3312L25.7952 28.3515Z" fill="#3355FF"/>
<path d="M14.187 11.4661C14.3121 11.591 14.4825 11.6613 14.6601 11.6613C14.8378 11.6613 15.0081 11.591 15.1333 11.4661L17.1324 9.48633C17.3014 9.31894 17.3674 9.07496 17.3056 8.8463C17.2437 8.61764 17.0633 8.43903 16.8324 8.37776C16.6015 8.3165 16.3552 8.38187 16.1861 8.54926L15.3265 9.40714V5.05835C15.3265 4.69389 15.0282 4.39844 14.6601 4.39844C14.2921 4.39844 13.9938 4.69389 13.9938 5.05835V9.40714L13.1342 8.54926C12.8729 8.2905 12.4492 8.2905 12.1879 8.54926C11.9266 8.80803 11.9266 9.22757 12.1879 9.48633L14.187 11.4661Z" fill="#3355FF"/>
<path d="M36.6503 25.5156H35.3176C34.9496 25.5156 34.6512 25.8106 34.6512 26.1744C34.6512 26.5383 34.9496 26.8333 35.3176 26.8333H36.6503C37.0184 26.8333 37.3167 26.5383 37.3167 26.1744C37.3167 25.8106 37.0184 25.5156 36.6503 25.5156Z" fill="#3355FF"/>
<path d="M3.33189 14.298H4.66463C5.03265 14.298 5.33099 14.003 5.33099 13.6392C5.33099 13.2754 5.03265 12.9805 4.66463 12.9805H3.33189C2.96387 12.9805 2.66553 13.2754 2.66553 13.6392C2.66553 14.003 2.96387 14.298 3.33189 14.298Z" fill="#3355FF"/>
</svg>
