<svg width="320" height="387" viewBox="0 0 320 387" fill="none" xmlns="http://www.w3.org/2000/svg">
<path d="M921.766 -298.94C919.362 -300.353 915.466 -300.353 913.062 -298.94C911.26 -297.879 910.814 -296.328 911.725 -295.032L776.953 -216.212V-116.715L744.117 -97.5109V10.7045L631.655 76.486L614.133 66.2358L700.854 15.5154V-43.8058L700.505 -44.0021L601.902 -101.674V-121.801L657.668 -154.417C660.071 -153.396 663.444 -153.514 665.615 -154.77C668.018 -156.184 668.018 -158.462 665.615 -159.856C663.211 -161.27 659.315 -161.27 656.912 -159.856C654.741 -158.58 654.547 -156.616 656.291 -155.202L600.526 -122.586V-100.849L600.874 -100.653L699.477 -42.981V14.7299L633.962 53.0599V28.3378L664.006 10.7634C666.41 11.7845 669.782 11.6667 671.953 10.4099C674.357 8.99613 674.357 6.71833 671.953 5.32416C669.55 3.91035 665.654 3.91035 663.25 5.32416C661.079 6.60051 660.885 8.56413 662.63 9.97794L632.586 27.5524V53.8846L612.776 65.47L589.341 51.7639V8.72122L633.535 -17.1397V-46.8886L633.186 -47.085L540.127 -101.517C541.872 -102.931 541.678 -104.894 539.507 -106.171C537.103 -107.584 533.207 -107.584 530.804 -106.171C528.4 -104.757 528.4 -102.479 530.804 -101.085C532.975 -99.8084 536.347 -99.7102 538.751 -100.731L632.14 -46.1032V-17.9644L589.322 7.0914V-22.579L588.973 -22.7754L532.044 -56.0784C533.789 -57.4922 533.595 -59.4559 531.424 -60.7323C529.02 -62.1461 525.124 -62.1461 522.721 -60.7323C520.317 -59.3184 520.317 -57.0406 522.721 -55.6464C524.892 -54.3701 528.264 -54.2719 530.668 -55.293L587.946 -21.7935V50.9195L571.489 41.2978L544.372 57.1638L519.813 42.7901V7.87689L519.464 7.68051L454.53 -30.2961V-63.2064C455.868 -63.2849 457.166 -63.6188 458.194 -64.2275C460.597 -65.6413 460.597 -67.9191 458.194 -69.3133C455.79 -70.7271 451.894 -70.7271 449.491 -69.3133C447.087 -67.8995 447.087 -65.6217 449.491 -64.2275C450.518 -63.6188 451.817 -63.3046 453.154 -63.2064V-29.4909L453.503 -29.2946L518.437 8.68195V41.985L412.759 -19.8299V-85.3561L470.076 -118.875H522.682L522.837 -118.973L613.105 -171.756C615.509 -170.735 618.882 -170.852 621.053 -172.109C623.456 -173.523 623.456 -175.801 621.053 -177.195C618.649 -178.609 614.753 -178.609 612.349 -177.195C610.178 -175.918 609.985 -173.955 611.729 -172.541L522.314 -120.25H472.46L638.284 -217.233C640.688 -216.212 644.061 -216.33 646.232 -217.587C648.635 -219 648.635 -221.278 646.232 -222.672C643.828 -224.086 639.932 -224.086 637.528 -222.672C635.357 -221.396 635.164 -219.432 636.908 -218.019L411.383 -86.1219V-18.9855L411.732 -18.7892L543.015 57.9886L516.596 73.4423L292.447 -57.6493V-135.88L292.098 -136.077L215.863 -180.651C217.608 -182.065 217.414 -184.028 215.243 -185.305C212.84 -186.718 208.943 -186.718 206.54 -185.305C204.136 -183.891 204.136 -181.613 206.54 -180.219C208.711 -178.942 212.084 -178.844 214.487 -179.865L291.051 -135.075V-56.8443L291.4 -56.6479L515.2 74.2474L490.041 88.955L268.373 -40.7032H136.178L53.5667 -89.0281V-163.292C54.4389 -163.469 55.253 -163.744 55.9508 -164.137C58.3543 -165.551 58.3543 -167.828 55.9508 -169.223C53.5473 -170.636 49.6512 -170.636 47.2477 -169.223C44.8441 -167.809 44.8441 -165.531 47.2477 -164.137C48.6045 -163.351 50.4265 -163.017 52.1904 -163.116V-88.223L52.5393 -88.0266L135.829 -39.3091H268.024L455.151 70.1435H417.508L353.64 32.7953H304.445L304.29 32.8935L236.061 72.7943C233.657 71.7733 230.285 71.891 228.114 73.1478C225.71 74.5616 225.71 76.8394 228.114 78.2336C230.517 79.6474 234.413 79.6474 236.817 78.2336C238.988 76.9572 239.182 74.9936 237.437 73.5798L304.813 34.1698H353.272L417.14 71.5179H457.535L488.684 89.7404L421.54 129.013L402.447 117.84V88.523L353.892 60.1486C355.637 58.7347 355.443 56.7712 353.272 55.4948C350.868 54.081 346.972 54.081 344.569 55.4948C342.165 56.9086 342.165 59.1864 344.569 60.5806C346.74 61.857 350.112 61.9551 352.516 60.934L401.013 89.3084V117.015L349.298 86.7557H324.798L324.643 86.8539L295.432 103.937C293.028 102.916 289.656 103.034 287.485 104.291C285.081 105.705 285.081 107.983 287.485 109.377C289.888 110.79 293.784 110.79 296.188 109.377C298.359 108.1 298.553 106.137 296.808 104.723L325.166 88.1302H348.91L420.106 129.759L407.177 137.319L448.444 161.452L429.119 172.763H399.889L378.974 160.529C380.641 159.135 380.408 157.191 378.276 155.934C375.873 154.52 371.977 154.52 369.573 155.934C367.17 157.348 367.17 159.626 369.573 161.02C371.763 162.296 375.194 162.395 377.617 161.334L399.52 174.137H426.735L377.443 202.963L261.492 135.139H178.046L177.891 135.238L130.906 162.709C128.503 161.688 125.13 161.806 122.959 163.062C120.555 164.476 120.555 166.754 122.959 168.148C125.363 169.562 129.259 169.562 131.662 168.148C133.833 166.872 134.027 164.908 132.282 163.494L178.415 136.514H261.104L350.539 188.825H312.257L274.847 166.95C276.591 165.536 276.397 163.573 274.227 162.296C271.823 160.883 267.927 160.883 265.523 162.296C263.12 163.71 263.12 165.988 265.523 167.382C267.694 168.658 271.067 168.757 273.471 167.736L311.888 190.219H352.923L376.047 203.749L317.18 238.171H129.026L-17.105 152.792C-15.3605 151.379 -15.5543 149.415 -17.7253 148.139C-20.1288 146.725 -24.0248 146.725 -26.4284 148.139C-28.8319 149.552 -28.8319 151.83 -26.4284 153.224C-24.2574 154.501 -20.8847 154.599 -18.4812 153.578L128.696 239.663H314.815L291.458 253.33H152.189L152.034 253.428L83.3589 293.604C80.9553 292.583 77.5826 292.701 75.4117 293.957C73.0081 295.371 73.0081 297.649 75.4117 299.043C77.8152 300.457 81.7112 300.457 84.1148 299.043C86.2857 297.767 86.4795 295.803 84.735 294.389L152.577 254.724H291.846L292.001 254.626L449.839 162.316L467.362 172.566L301.421 269.628H180.062L179.907 269.726L33.3304 355.458H-169.749L-209 332.484V334.094L-170.117 356.833H33.6987L33.8538 356.735L125.847 302.931V334.781L65.216 370.244C62.8125 369.223 59.4398 369.341 57.2689 370.598C54.8653 372.012 54.8653 374.289 57.2689 375.684C59.6724 377.097 63.5685 377.097 65.972 375.684C68.1429 374.407 68.3367 372.444 66.5922 371.03L127.223 335.567V302.303H126.913L180.45 270.983H301.809L301.964 270.885L468.758 173.332L488.664 184.976L165.04 374.25V408.457H166.416V375.055L490.041 185.781L514.638 200.175L347.709 297.806V315.263L318.11 332.582V372.738L260.716 406.316C258.313 405.295 254.94 405.413 252.769 406.67C251.897 407.18 251.335 407.809 251.102 408.476H263.1C262.926 407.985 262.597 407.534 262.093 407.121L319.487 373.543V333.387L347.709 316.873V381.162L364.359 390.902L334.315 408.496H337.067L365.696 391.746L394.326 408.496H397.078L349.027 380.396V298.651L515.956 201.019L538.344 214.117L420.202 283.216C417.799 282.195 414.426 282.313 412.255 283.57C409.852 284.984 409.852 287.262 412.255 288.656C414.659 290.07 418.555 290.07 420.958 288.656C423.129 287.379 423.323 285.416 421.579 284.002L539.72 214.902L561.333 227.548L420.009 310.197H381.61C381.378 309.529 380.815 308.881 379.924 308.351C377.52 306.937 373.624 306.937 371.221 308.351C368.817 309.765 368.817 312.042 371.221 313.437C373.624 314.85 377.52 314.85 379.924 313.437C380.815 312.906 381.378 312.258 381.61 311.591H420.377L420.532 311.493L562.689 228.353L571.412 233.458L578.118 229.531L611.981 249.324V276.894L584.011 293.251V293.172H540.108L539.953 293.27L491.785 321.448C489.382 320.427 486.009 320.545 483.838 321.802C481.434 323.216 481.434 325.493 483.838 326.888C486.241 328.301 490.138 328.301 492.541 326.888C494.712 325.611 494.906 323.648 493.161 322.234L540.476 294.566H581.743L499.5 342.655C497.077 341.556 493.607 341.634 491.378 342.93C488.974 344.344 488.974 346.622 491.378 348.016C493.782 349.43 497.678 349.43 500.081 348.016C502.194 346.779 502.446 344.874 500.837 343.461L603.414 283.472V296.726L542.395 332.425V357.618L492.715 386.68C490.312 385.659 486.939 385.777 484.768 387.033C482.365 388.447 482.365 390.725 484.768 392.119C487.172 393.533 491.068 393.533 493.471 392.119C495.642 390.843 495.836 388.879 494.092 387.465L543.771 358.404V333.21L604.79 297.512V282.647L613.338 277.64V248.46L579.475 228.667L601.727 215.648L671.391 256.393V302.715L624.076 330.383C621.653 329.283 618.184 329.362 615.955 330.658C613.551 332.071 613.551 334.349 615.955 335.743C618.358 337.157 622.254 337.157 624.658 335.743C626.771 334.506 627.023 332.602 625.414 331.188L671.372 304.306V341.732L635.067 362.979V408.417H636.443V363.784L671.372 343.343V408.398H672.748V255.569L603.084 214.823L628.069 200.214L719.132 253.467V380.318L762.9 405.923V408.496H764.276V405.197L720.508 379.591V252.741L629.445 199.487L647.957 188.648L770.847 260.517V368.732L878.355 431H881.846L772.34 367.947V259.731L649.449 187.863L679.455 170.308L883.929 289.893V343.735L954 384.716V383.106L885.306 342.93V289.088L770.304 221.814H861.251L954 276.069V274.459L861.619 220.42H767.92L680.85 169.503L715.74 149.101L790.579 192.87H910.756L954 218.161V216.551L944.522 211.014H954V209.62H942.137L911.124 191.476H790.948L769.994 179.223H821.089L821.244 179.125L846.868 164.142H953.632L953.981 164.358V162.748H849.233L878.076 145.88C880.479 146.902 883.852 146.784 886.023 145.527C888.426 144.113 888.426 141.835 886.023 140.441C883.619 139.027 879.723 139.027 877.32 140.441C875.149 141.718 874.955 143.681 876.699 145.095L820.681 177.868H767.571L717.058 148.335L735.724 137.417L723.707 130.387H758.616L804.244 157.073C802.5 158.487 802.694 160.451 804.865 161.727C807.268 163.141 811.164 163.141 813.568 161.727C815.971 160.313 815.971 158.035 813.568 156.641C811.397 155.365 808.024 155.267 805.621 156.288L758.984 129.013H721.322L695.775 114.07L711.476 104.88H739.33L763.83 90.5455H782.109L823.395 114.698C821.534 116.112 821.689 118.134 823.899 119.43C826.303 120.844 830.199 120.844 832.602 119.43C835.006 118.017 835.006 115.739 832.602 114.345C830.47 113.108 827.194 112.97 824.791 113.913L782.477 89.171H763.462L738.961 103.505H713.86L764.082 74.1296H791.199L847.721 107.177H953.961V105.783H848.089L791.568 72.7354H763.714L763.559 72.8336L694.399 113.284L676.256 102.681L754.41 56.9675H809.536L855.009 83.555H953.981V82.1608H855.397L812.308 56.9675H953.981V55.5734H754.061L753.906 55.6715L674.919 101.876L654.295 89.819L763.268 26.0797H953.981V24.6855H815.002L953.981 -56.6086V-58.2188L812.25 24.6855H764.276L867.589 -35.7353V-49.0486L917.036 -77.9532C919.44 -76.9321 922.812 -77.0499 924.983 -78.3067C927.387 -79.7205 927.387 -81.9983 924.983 -83.3925C922.58 -84.8063 918.684 -84.8063 916.28 -83.3925C914.109 -82.1161 913.915 -80.1525 915.66 -78.7387L888.736 -62.9904V-99.4942L954 -137.785V-139.395L887.36 -100.417V-62.3031L866.213 -49.9323V-36.6189L762.047 24.3124L762.396 24.9211L652.919 88.955L633.012 77.3107L745.474 11.5292V-96.6862L954 -218.667V-220.277L778.329 -117.52V-215.407L912.791 -294.05C912.888 -293.991 912.966 -293.913 913.062 -293.854C915.466 -292.44 919.362 -292.44 921.766 -293.854C924.169 -295.268 924.169 -297.545 921.766 -298.94ZM733.011 137.378L571.47 231.868L409.949 137.398L571.489 42.908L733.011 137.378Z" fill="#889CFF" fill-opacity="0.4"/>
</svg>
